<svg  xmlns="http://www.w3.org/2000/svg" >
<symbol fill="none" stroke="currentColor" viewBox="0 0 10 18" id="btn-left"><path d="M8.077 15.923 1.154 9l6.923-6.923"  stroke-width="1.636" stroke-linecap="square"/></symbol>
<svg fill="none" viewBox="0 0 10 18" id="btn-right" xmlns="http://www.w3.org/2000/svg"><path d="M1.923 2.077 8.846 9l-6.923 6.923" stroke="#fff" stroke-width="1.636" stroke-linecap="square"/>
</svg>

<symbol id="dashboard" viewBox="0 0 24 24"><path fill="none" stroke="currentColor" stroke-width="2" d="M4 5a1 1 0 0 1 1-1h4a1 1 0 0 1 1 1v5a1 1 0 0 1-1 1H5a1 1 0 0 1-1-1zm10 0a1 1 0 0 1 1-1h4a1 1 0 0 1 1 1v2a1 1 0 0 1-1 1h-4a1 1 0 0 1-1-1zM4 16a1 1 0 0 1 1-1h4a1 1 0 0 1 1 1v3a1 1 0 0 1-1 1H5a1 1 0 0 1-1-1zm10-3a1 1 0 0 1 1-1h4a1 1 0 0 1 1 1v6a1 1 0 0 1-1 1h-4a1 1 0 0 1-1-1z"/></symbol>

<symbol id="sales" viewBox="0 0 24 24"><path fill="none" stroke="currentColor" stroke-linecap="round" stroke-linejoin="round" stroke-width="2" d="m14.5 10l-.035-.139A2.457 2.457 0 0 0 12.082 8h-.522a1.841 1.841 0 0 0-.684 3.55l2.248.9A1.841 1.841 0 0 1 12.44 16h-.521a2.457 2.457 0 0 1-2.384-1.861L9.5 14M12 6v2m0 8v2m9-6a9 9 0 1 1-18 0a9 9 0 0 1 18 0"/></symbol>

<symbol id="costs" viewBox="0 0 24 24"><path fill="none" stroke="currentColor" stroke-linecap="round" stroke-width="2" d="M17 5v15m-5-9v9m-5-6v6"/></symbol>

<symbol id="payments" viewBox="0 0 24 24"><path fill="none" stroke="currentColor" stroke-linecap="round" stroke-linejoin="round" stroke-width="2" d="M4 10V8a2 2 0 0 1 2-2h12a2 2 0 0 1 2 2v2M4 10h16M4 10v6a2 2 0 0 0 2 2h12a2 2 0 0 0 2-2v-6M7 15h5"/></symbol>

<symbol id="finances" viewBox="0 0 24 24"><path fill="none" stroke="currentColor" stroke-linecap="round" stroke-linejoin="round" stroke-width="2" d="M20.488 15A9.004 9.004 0 0 1 12 21A9 9 0 0 1 9 3.512M12 3a9 9 0 0 1 9 9h-9z"/></symbol>

<symbol id="messages" viewBox="0 0 24 24"><g fill="none" stroke="currentColor" stroke-width="2"><path stroke-linejoin="round" d="M21 19V8.588a1 1 0 0 0-.514-.874l-7.03-3.905a3 3 0 0 0-2.913 0L3.514 7.714A1 1 0 0 0 3 8.588V19a1 1 0 0 0 1 1h16a1 1 0 0 0 1-1z"/><path stroke-linecap="round" d="m3 10l7.89 5.26a2 2 0 0 0 2.22 0L21 10M9 14l-6 4m12-4l6 4"/></g></symbol>

<symbol id="settings" viewBox="0 0 24 24"><g fill="none" stroke="currentColor" stroke-linejoin="round" stroke-width="2"><path d="M15 12a3 3 0 1 1-6 0a3 3 0 0 1 6 0Z"/><path d="M10.47 4.32c.602-1.306 2.458-1.306 3.06 0l.218.473a1.684 1.684 0 0 0 2.112.875l.49-.18c1.348-.498 2.66.814 2.162 2.163l-.18.489a1.684 1.684 0 0 0 .875 2.112l.474.218c1.305.602 1.305 2.458 0 3.06l-.474.218a1.684 1.684 0 0 0-.875 2.112l.18.49c.498 1.348-.814 2.66-2.163 2.162l-.489-.18a1.684 1.684 0 0 0-2.112.875l-.218.473c-.602 1.306-2.458 1.306-3.06 0l-.218-.473a1.684 1.684 0 0 0-2.112-.875l-.49.18c-1.348.498-2.66-.814-2.163-2.163l.181-.489a1.684 1.684 0 0 0-.875-2.112l-.474-.218c-1.305-.602-1.305-2.458 0-3.06l.474-.218a1.684 1.684 0 0 0 .875-2.112l-.18-.49c-.498-1.348.814-2.66 2.163-2.163l.489.181a1.684 1.684 0 0 0 2.112-.875l.218-.474Z"/></g></symbol>

<symbol id="support" viewBox="0 0 24 24"><path fill="none" stroke="currentColor" stroke-linecap="round" stroke-linejoin="round" stroke-width="2" d="M12.636 4A7.364 7.364 0 0 1 20 11.364M13 8a3 3 0 0 1 3 3M7 6l-2.485.621c-.89.223-1.534 1.029-1.352 1.928c1.06 5.213 7.075 11.228 12.288 12.287c.9.183 1.705-.46 1.928-1.35l.62-2.486l-3.5-2l-1.5 1.5c-2-1-4.5-3.5-5.5-5.5L9 9.5z"/></symbol>

<symbol id="logout" viewBox="0 0 24 24"><path fill="none" stroke="currentColor" stroke-linecap="round" stroke-linejoin="round" stroke-width="2" d="M20 12h-9.5m7.5 3l3-3l-3-3m-5-2V6a2 2 0 0 0-2-2H6a2 2 0 0 0-2 2v12a2 2 0 0 0 2 2h5a2 2 0 0 0 2-2v-1"/></symbol>

<symbol id="external" viewBox="0 0 24 24"><path fill="none" stroke="currentColor" stroke-linecap="round" stroke-linejoin="round" stroke-width="2" d="M12 6H7a1 1 0 0 0-1 1v10a1 1 0 0 0 1 1h10a1 1 0 0 0 1-1v-5m-6 0l7.5-7.5M15 3h6v6"/></symbol>
</svg>